<svg width="181" height="36" viewBox="0 0 181 36" fill="none" xmlns="http://www.w3.org/2000/svg">
<path d="M9.43124 5.3035C10.7724 2.05462 14.0997 0.480588 17.7536 0.0773865C21.9405 -0.380092 26.4972 1.20945 28.9733 4.34977C29.4719 4.97783 29.9792 5.93156 30.2457 6.66818C30.1253 6.65267 29.9964 6.66042 29.8846 6.66818C29.4719 6.69144 29.0678 6.77673 28.6638 6.86978C28.2683 6.96283 27.8814 7.07138 27.5031 7.2032C27.1248 7.33501 26.7551 7.48234 26.4026 7.65292C26.0845 7.808 25.7836 7.97858 25.4913 8.16468C24.8293 8.59889 24.2275 9.11065 23.6858 9.66893C23.2216 10.1419 22.8003 10.6304 22.3618 11.1189C21.9062 11.6384 21.4247 12.1424 20.8745 12.5844C19.774 13.4761 18.4242 14.0188 16.954 14.1429C11.6924 14.6081 7.56559 9.78523 9.43124 5.3035Z" fill="white"/>
<path d="M33.3408 8.50584C36.9431 9.7232 38.6884 12.7162 39.1355 16.0116C39.6427 19.7877 37.8802 23.8973 34.3983 26.1304C33.7019 26.5801 32.6444 27.0376 31.8276 27.278C31.8448 27.1694 31.8362 27.0531 31.8276 26.9523C31.8018 26.5801 31.7073 26.2157 31.6041 25.8513C31.5009 25.4946 31.3806 25.1457 31.2344 24.8045C31.0882 24.4633 30.9249 24.1299 30.7357 23.812C30.5638 23.5251 30.3747 23.2537 30.1683 22.9901C29.6869 22.393 29.1194 21.8503 28.5004 21.3618C27.976 20.9431 27.4343 20.5631 26.8927 20.1677C26.3167 19.7567 25.7578 19.3225 25.2678 18.8262C24.2791 17.8338 23.6772 16.6164 23.5397 15.2905C23.0238 10.5451 28.3628 6.82325 33.3408 8.50584Z" fill="white"/>
<path d="M29.79 30.0694C28.4402 33.3182 25.1216 34.8923 21.4677 35.2955C17.2807 35.7529 12.7241 34.1557 10.248 31.0153C9.74935 30.3873 9.2421 29.4335 8.97558 28.6969C9.09594 28.7124 9.2249 28.7047 9.33667 28.6969C9.74935 28.6737 10.1534 28.5884 10.5575 28.4953C10.953 28.4023 11.3399 28.2937 11.7182 28.1619C12.0965 28.0301 12.4661 27.8828 12.8186 27.7122C13.1367 27.5571 13.4377 27.3865 13.73 27.2004C14.392 26.7662 14.9938 26.2545 15.5354 25.6962C15.9997 25.2232 16.421 24.7347 16.8594 24.2462C17.3151 23.7267 17.7966 23.2227 18.3468 22.7807C19.4473 21.889 20.7971 21.3463 22.2672 21.2222C27.5203 20.7647 31.6471 25.5799 29.79 30.0694Z" fill="white"/>
<path d="M5.88049 26.867C2.27816 25.6497 0.532874 22.6489 0.0858058 19.3613C-0.421444 15.5851 1.34103 11.4756 4.823 9.24246C5.5194 8.79274 6.57689 8.33526 7.39364 8.09489C7.37645 8.20345 7.38505 8.31975 7.39364 8.42055C7.41944 8.79274 7.51401 9.15717 7.61718 9.5216C7.72035 9.87828 7.84071 10.2272 7.98687 10.5684C8.13303 10.9095 8.29638 11.243 8.48552 11.5609C8.65747 11.8478 8.84661 12.1192 9.05295 12.3828C9.53441 12.9798 10.1018 13.5226 10.7209 14.0111C11.2453 14.4298 11.7869 14.8097 12.3286 15.2052C12.9046 15.6161 13.4634 16.0504 13.9535 16.5466C14.9422 17.5391 15.544 18.7565 15.6816 20.0824C16.1974 24.82 10.8498 28.5419 5.88049 26.867Z" fill="white"/>
<path d="M58.9155 18.0452C58.9155 15.7383 59.4168 13.7143 60.4192 11.9733C61.4461 10.2105 62.8886 8.85024 64.7468 7.89266C66.6294 6.91331 68.8177 6.42363 71.3116 6.42363C73.2431 6.42363 74.979 6.75008 76.5194 7.40298C78.0841 8.05588 79.3555 8.9917 80.3335 10.2104C81.3115 11.4074 81.935 12.8003 82.2039 14.389H77.9863C77.5707 12.9309 76.7639 11.7883 75.5658 10.9613C74.3678 10.1343 72.8886 9.72078 71.1282 9.72078C69.5389 9.72078 68.1453 10.0799 66.9473 10.7981C65.7492 11.4945 64.8324 12.4738 64.1967 13.7361C63.561 14.9766 63.2431 16.413 63.2431 18.0452C63.2431 19.6557 63.561 21.0921 64.1967 22.3544C64.8324 23.6167 65.7492 24.6069 66.9473 25.3251C68.1453 26.0215 69.5389 26.3697 71.1282 26.3697C72.8886 26.3697 74.3555 25.9562 75.5291 25.1292C76.7272 24.3022 77.534 23.1596 77.9497 21.7015H82.1672C81.8983 23.312 81.2748 24.7157 80.2968 25.9127C79.3433 27.1097 78.0964 28.0346 76.556 28.6875C75.0157 29.3404 73.2675 29.6669 71.3116 29.6669C68.8177 29.6669 66.6294 29.1881 64.7468 28.2305C62.8886 27.2729 61.4461 25.9236 60.4192 24.1825C59.4168 22.4197 58.9155 20.3739 58.9155 18.0452Z" fill="white"/>
<path d="M94.2719 29.6669C92.3892 29.6669 90.7144 29.3187 89.2474 28.6222C87.8049 27.904 86.6802 26.9029 85.8734 25.6189C85.091 24.3131 84.6998 22.8114 84.6998 21.1139C84.6998 19.4381 85.091 17.9582 85.8734 16.6742C86.6802 15.3684 87.8049 14.3564 89.2474 13.6382C90.7144 12.92 92.3892 12.5609 94.2719 12.5609C96.1545 12.5609 97.8171 12.92 99.2596 13.6382C100.727 14.3564 101.851 15.3684 102.634 16.6742C103.441 17.9582 103.844 19.4381 103.844 21.1139C103.844 22.8114 103.441 24.3131 102.634 25.6189C101.851 26.9029 100.727 27.904 99.2596 28.6222C97.8171 29.3187 96.1545 29.6669 94.2719 29.6669ZM94.2719 26.6635C95.9345 26.6635 97.267 26.1521 98.2694 25.1292C99.2963 24.0846 99.8097 22.7461 99.8097 21.1139C99.8097 19.4816 99.2963 18.1541 98.2694 17.1312C97.267 16.0865 95.9345 15.5642 94.2719 15.5642C92.6093 15.5642 91.2768 16.0865 90.2743 17.1312C89.2719 18.1541 88.7707 19.4816 88.7707 21.1139C88.7707 22.7461 89.2719 24.0846 90.2743 25.1292C91.2768 26.1521 92.6093 26.6635 94.2719 26.6635Z" fill="white"/>
<path d="M107.029 6.6195H110.99V29.471H107.029V6.6195Z" fill="white"/>
<path d="M123.748 29.6669C121.865 29.6669 120.19 29.3187 118.723 28.6222C117.281 27.904 116.156 26.9029 115.349 25.6189C114.567 24.3131 114.176 22.8114 114.176 21.1139C114.176 19.4381 114.567 17.9582 115.349 16.6742C116.156 15.3684 117.281 14.3564 118.723 13.6382C120.19 12.92 121.865 12.5609 123.748 12.5609C125.63 12.5609 127.293 12.92 128.735 13.6382C130.202 14.3564 131.327 15.3684 132.109 16.6742C132.916 17.9582 133.32 19.4381 133.32 21.1139C133.32 22.8114 132.916 24.3131 132.109 25.6189C131.327 26.9029 130.202 27.904 128.735 28.6222C127.293 29.3187 125.63 29.6669 123.748 29.6669ZM123.748 26.6635C125.41 26.6635 126.743 26.1521 127.745 25.1292C128.772 24.0846 129.286 22.7461 129.286 21.1139C129.286 19.4816 128.772 18.1541 127.745 17.1312C126.743 16.0865 125.41 15.5642 123.748 15.5642C122.085 15.5642 120.753 16.0865 119.75 17.1312C118.748 18.1541 118.246 19.4816 118.246 21.1139C118.246 22.7461 118.748 24.0846 119.75 25.1292C120.753 26.1521 122.085 26.6635 123.748 26.6635Z" fill="white"/>
<path d="M146.407 12.5609C148.632 12.5609 150.441 13.1703 151.835 14.389C153.253 15.6078 153.962 17.5665 153.962 20.2651V29.471H149.964V20.461C149.964 18.8723 149.585 17.6644 148.827 16.8374C148.069 16.0104 146.957 15.5969 145.49 15.5969C143.925 15.5969 142.69 16.0865 141.786 17.0659C140.906 18.0235 140.466 19.351 140.466 21.0486V29.471H136.505V12.7568H139.952L140.392 14.944C141.81 13.3553 143.815 12.5609 146.407 12.5609Z" fill="white"/>
<path d="M159.338 12.7568L164.583 25.6515L169.68 12.7568H173.898L165.389 32.0826C164.949 33.0837 164.546 33.8454 164.179 34.3678C163.812 34.9118 163.36 35.3145 162.822 35.5756C162.284 35.8585 161.563 36 160.658 36H156.404V32.8987H159.191C159.949 32.8987 160.475 32.7899 160.768 32.5723C161.062 32.3764 161.367 31.9194 161.685 31.2012L162.455 29.6016L155.121 12.7568H159.338Z" fill="white"/>
<path d="M175.535 27.447C175.535 26.7941 175.767 26.2609 176.231 25.8474C176.72 25.4339 177.332 25.2271 178.065 25.2271C178.799 25.2271 179.41 25.4339 179.899 25.8474C180.388 26.2609 180.632 26.7941 180.632 27.447C180.632 28.0999 180.388 28.6331 179.899 29.0466C179.41 29.4601 178.799 29.6669 178.065 29.6669C177.332 29.6669 176.72 29.4601 176.231 29.0466C175.767 28.6331 175.535 28.0999 175.535 27.447Z" fill="white"/>
</svg>
