<svg width="116" height="27" viewBox="0 0 116 27" fill="none" xmlns="http://www.w3.org/2000/svg">
<g clip-path="url(#clip0_263_1958)">
<path d="M6.39971 3.95018C7.30977 1.53049 9.56743 0.358176 12.0468 0.05788C14.8878 -0.282841 17.9797 0.901019 19.6598 3.23986C19.9982 3.70763 20.3424 4.41795 20.5232 4.96657C20.4415 4.95502 20.354 4.96079 20.2782 4.96657C19.9982 4.98389 19.724 5.04742 19.4498 5.11671C19.1814 5.18601 18.9189 5.26686 18.6622 5.36504C18.4056 5.46321 18.1547 5.57293 17.9155 5.69998C17.6997 5.81548 17.4955 5.94253 17.2971 6.08113C16.8479 6.40452 16.4396 6.78567 16.0721 7.20146C15.757 7.55373 15.4712 7.91755 15.1737 8.28137C14.8645 8.66829 14.5378 9.04366 14.1644 9.37284C13.4177 10.037 12.5018 10.4412 11.5042 10.5336C7.93399 10.8801 5.13379 7.28809 6.39971 3.95018Z" fill="#2620A9"/>
<path d="M22.6234 6.33531C25.0678 7.24198 26.252 9.4711 26.5554 11.9254C26.8996 14.7378 25.7037 17.7985 23.341 19.4617C22.8685 19.7967 22.1509 20.1374 21.5967 20.3164C21.6084 20.2356 21.6025 20.1489 21.5967 20.0739C21.5792 19.7967 21.515 19.5252 21.445 19.2538C21.375 18.9882 21.2933 18.7283 21.1942 18.4742C21.095 18.2201 20.9842 17.9718 20.8558 17.735C20.7391 17.5213 20.6108 17.3192 20.4708 17.1229C20.1441 16.6782 19.7591 16.274 19.339 15.9101C18.9832 15.5983 18.6157 15.3153 18.2481 15.0208C17.8573 14.7147 17.4781 14.3913 17.1455 14.0217C16.4747 13.2825 16.0663 12.3759 15.973 11.3884C15.6229 7.85412 19.2457 5.08215 22.6234 6.33531Z" fill="#5F59F7"/>
<path d="M20.2141 22.3952C19.2982 24.8149 17.0463 25.9872 14.567 26.2875C11.726 26.6282 8.63409 25.4385 6.95397 23.0997C6.61561 22.6319 6.27142 21.9216 6.09058 21.373C6.17225 21.3845 6.25975 21.3788 6.33559 21.373C6.61561 21.3557 6.8898 21.2921 7.16399 21.2229C7.43234 21.1536 7.69486 21.0727 7.95154 20.9745C8.20823 20.8764 8.45908 20.7666 8.69826 20.6396C8.91411 20.5241 9.11829 20.397 9.31664 20.2584C9.76584 19.935 10.1742 19.5539 10.5417 19.1381C10.8567 18.7858 11.1426 18.422 11.4401 18.0582C11.7493 17.6713 12.076 17.2959 12.4494 16.9667C13.1961 16.3026 14.112 15.8984 15.1095 15.806C18.674 15.4653 21.4742 19.0515 20.2141 22.3952Z" fill="#44C2FD"/>
<path d="M3.99041 20.0101C1.54607 19.1035 0.361822 16.8686 0.0584671 14.42C-0.285724 11.6076 0.910194 8.54692 3.27286 6.88374C3.74539 6.5488 4.46294 6.20808 5.01715 6.02905C5.00548 6.1099 5.01132 6.19653 5.01715 6.2716C5.03465 6.5488 5.09882 6.82022 5.16883 7.09164C5.23883 7.35729 5.32051 7.61716 5.41968 7.87125C5.51885 8.12535 5.62969 8.37367 5.75804 8.61044C5.87471 8.82412 6.00305 9.02624 6.14306 9.22259C6.46975 9.66726 6.85478 10.0715 7.27481 10.4353C7.63067 10.7472 7.99819 11.0301 8.36572 11.3247C8.75658 11.6307 9.13577 11.9541 9.4683 12.3237C10.1392 13.0629 10.5475 13.9696 10.6409 14.9571C10.9909 18.4856 7.36232 21.2575 3.99041 20.0101Z" fill="#6592FD"/>
</g>
<path d="M33.4099 13.44C33.4099 11.7218 33.75 10.2144 34.4302 8.91769C35.127 7.60477 36.1058 6.59171 37.3667 5.87852C38.6441 5.14912 40.1289 4.78442 41.8211 4.78442C43.1318 4.78442 44.3097 5.02756 45.3549 5.51382C46.4166 6.00009 47.2793 6.69707 47.9429 7.60477C48.6065 8.49626 49.0296 9.53363 49.2121 10.7169H46.3503C46.0682 9.63088 45.5208 8.77991 44.7078 8.16398C43.8949 7.54804 42.8912 7.24007 41.6967 7.24007C40.6184 7.24007 39.6727 7.50752 38.8598 8.04241C38.0469 8.56109 37.4247 9.29049 36.9934 10.2306C36.5621 11.1545 36.3464 12.2243 36.3464 13.44C36.3464 14.6394 36.5621 15.7092 36.9934 16.6493C37.4247 17.5894 38.0469 18.3269 38.8598 18.8618C39.6727 19.3805 40.6184 19.6399 41.6967 19.6399C42.8912 19.6399 43.8866 19.3319 44.683 18.716C45.4959 18.1 46.0434 17.2491 46.3254 16.1631H49.1872C49.0047 17.3625 48.5817 18.408 47.918 19.2995C47.271 20.191 46.4249 20.8798 45.3797 21.3661C44.3346 21.8524 43.1484 22.0955 41.8211 22.0955C40.1289 22.0955 38.6441 21.7389 37.3667 21.0257C36.1058 20.3125 35.127 19.3076 34.4302 18.0109C33.75 16.698 33.4099 15.1743 33.4099 13.44Z" fill="black"/>
<path d="M57.4007 22.0955C56.1233 22.0955 54.9868 21.8362 53.9914 21.3175C53.0126 20.7826 52.2495 20.037 51.702 19.0807C51.1711 18.1081 50.9056 16.9897 50.9056 15.7254C50.9056 14.4773 51.1711 13.3751 51.702 12.4188C52.2495 11.4463 53.0126 10.6926 53.9914 10.1577C54.9868 9.62278 56.1233 9.35533 57.4007 9.35533C58.6782 9.35533 59.8063 9.62278 60.7851 10.1577C61.7805 10.6926 62.5437 11.4463 63.0746 12.4188C63.622 13.3751 63.8958 14.4773 63.8958 15.7254C63.8958 16.9897 63.622 18.1081 63.0746 19.0807C62.5437 20.037 61.7805 20.7826 60.7851 21.3175C59.8063 21.8362 58.6782 22.0955 57.4007 22.0955ZM57.4007 19.8587C58.5288 19.8587 59.433 19.4778 60.1132 18.716C60.81 17.9379 61.1584 16.9411 61.1584 15.7254C61.1584 14.5098 60.81 13.521 60.1132 12.7592C59.433 11.9812 58.5288 11.5922 57.4007 11.5922C56.2726 11.5922 55.3684 11.9812 54.6882 12.7592C54.008 13.521 53.6679 14.5098 53.6679 15.7254C53.6679 16.9411 54.008 17.9379 54.6882 18.716C55.3684 19.4778 56.2726 19.8587 57.4007 19.8587Z" fill="black"/>
<path d="M66.0569 4.9303H68.7445V21.9496H66.0569V4.9303Z" fill="black"/>
<path d="M77.4013 22.0955C76.1239 22.0955 74.9874 21.8362 73.992 21.3175C73.0132 20.7826 72.25 20.037 71.7026 19.0807C71.1717 18.1081 70.9062 16.9897 70.9062 15.7254C70.9062 14.4773 71.1717 13.3751 71.7026 12.4188C72.25 11.4463 73.0132 10.6926 73.992 10.1577C74.9874 9.62278 76.1239 9.35533 77.4013 9.35533C78.6788 9.35533 79.8069 9.62278 80.7857 10.1577C81.7811 10.6926 82.5443 11.4463 83.0752 12.4188C83.6226 13.3751 83.8964 14.4773 83.8964 15.7254C83.8964 16.9897 83.6226 18.1081 83.0752 19.0807C82.5443 20.037 81.7811 20.7826 80.7857 21.3175C79.8069 21.8362 78.6788 22.0955 77.4013 22.0955ZM77.4013 19.8587C78.5294 19.8587 79.4336 19.4778 80.1138 18.716C80.8106 17.9379 81.159 16.9411 81.159 15.7254C81.159 14.5098 80.8106 13.521 80.1138 12.7592C79.4336 11.9812 78.5294 11.5922 77.4013 11.5922C76.2732 11.5922 75.369 11.9812 74.6888 12.7592C74.0086 13.521 73.6685 14.5098 73.6685 15.7254C73.6685 16.9411 74.0086 17.9379 74.6888 18.716C75.369 19.4778 76.2732 19.8587 77.4013 19.8587Z" fill="black"/>
<path d="M92.7765 9.35533C94.2862 9.35533 95.5139 9.80918 96.4596 10.7169C97.4218 11.6246 97.9029 13.0834 97.9029 15.0933V21.9496H95.1904V15.2392C95.1904 14.0559 94.9333 13.1563 94.419 12.5404C93.9047 11.9244 93.1498 11.6165 92.1544 11.6165C91.0926 11.6165 90.2548 11.9812 89.641 12.7106C89.0437 13.4238 88.7451 14.4125 88.7451 15.6768V21.9496H86.0575V9.50121H88.3967L88.6954 11.1302C89.6576 9.94695 91.018 9.35533 92.7765 9.35533Z" fill="black"/>
<path d="M101.551 9.50121L105.11 19.105L108.569 9.50121H111.43L105.657 23.8947C105.358 24.6403 105.085 25.2076 104.836 25.5966C104.587 26.0019 104.28 26.3017 103.915 26.4962C103.55 26.7069 103.061 26.8123 102.447 26.8123H99.5601V24.5025H101.451C101.966 24.5025 102.322 24.4215 102.521 24.2594C102.721 24.1135 102.928 23.7731 103.144 23.2382L103.666 22.0469L98.6891 9.50121H101.551Z" fill="black"/>
<path d="M112.541 20.4422C112.541 19.9559 112.699 19.5588 113.014 19.2509C113.346 18.9429 113.76 18.7889 114.258 18.7889C114.756 18.7889 115.17 18.9429 115.502 19.2509C115.834 19.5588 116 19.9559 116 20.4422C116 20.9285 115.834 21.3256 115.502 21.6336C115.17 21.9415 114.756 22.0955 114.258 22.0955C113.76 22.0955 113.346 21.9415 113.014 21.6336C112.699 21.3256 112.541 20.9285 112.541 20.4422Z" fill="black"/>
<defs>
<clipPath id="clip0_263_1958">
<rect width="26.6135" height="26.3394" fill="white"/>
</clipPath>
</defs>
</svg>
