<svg width="100" height="24" viewBox="0 0 100 24" fill="none" xmlns="http://www.w3.org/2000/svg">
<g clip-path="url(#clip0_305_2461)">
<path d="M5.51671 3.40536C6.30124 1.31942 8.2475 0.308806 10.3849 0.0499303C12.834 -0.243795 15.4995 0.776774 16.9478 2.79302C17.2395 3.19627 17.5362 3.80861 17.6921 4.28156C17.6217 4.2716 17.5463 4.27658 17.4809 4.28156C17.2395 4.29649 17.0032 4.35126 16.7668 4.411C16.5354 4.47074 16.3091 4.54043 16.0879 4.62507C15.8666 4.7097 15.6503 4.80429 15.4441 4.91381C15.2581 5.01338 15.082 5.12291 14.911 5.24239C14.5238 5.52118 14.1718 5.84975 13.8549 6.20819C13.5834 6.51187 13.3369 6.82551 13.0805 7.13915C12.8139 7.4727 12.5323 7.7963 12.2104 8.08007C11.5667 8.65258 10.7771 9.00107 9.91716 9.08072C6.83936 9.37942 4.42539 6.28287 5.51671 3.40536Z" fill="white"/>
<path d="M19.5024 5.46128C21.6096 6.24289 22.6305 8.16455 22.8921 10.2804C23.1888 12.7048 22.1578 15.3434 20.121 16.7772C19.7137 17.0659 19.0951 17.3596 18.6173 17.514C18.6274 17.4443 18.6224 17.3696 18.6173 17.3049C18.6022 17.0659 18.5469 16.8319 18.4866 16.5979C18.4262 16.3689 18.3558 16.1449 18.2703 15.9258C18.1848 15.7068 18.0893 15.4927 17.9786 15.2886C17.8781 15.1044 17.7674 14.9302 17.6467 14.7609C17.3651 14.3776 17.0332 14.0291 16.6711 13.7154C16.3643 13.4466 16.0475 13.2027 15.7306 12.9488C15.3937 12.6849 15.0668 12.4061 14.7801 12.0875C14.2018 11.4503 13.8498 10.6687 13.7693 9.81737C13.4675 6.7706 16.5906 4.38097 19.5024 5.46128Z" fill="white"/>
<path d="M17.4254 19.3062C16.6359 21.3921 14.6946 22.4028 12.5573 22.6616C10.1081 22.9554 7.44268 21.9298 5.99431 19.9136C5.70262 19.5103 5.4059 18.898 5.25 18.425C5.32041 18.435 5.39584 18.43 5.46122 18.425C5.70262 18.4101 5.93899 18.3553 6.17535 18.2956C6.40669 18.2358 6.633 18.1662 6.85428 18.0815C7.07556 17.9969 7.29181 17.9023 7.498 17.7928C7.68408 17.6932 7.8601 17.5837 8.03109 17.4642C8.41833 17.1854 8.77036 16.8568 9.0872 16.4984C9.35877 16.1947 9.60519 15.8811 9.86168 15.5674C10.1282 15.2339 10.4098 14.9103 10.7317 14.6265C11.3754 14.054 12.165 13.7055 13.025 13.6259C16.0978 13.3321 18.5117 16.4237 17.4254 19.3062Z" fill="white"/>
<path d="M3.4398 17.2502C1.33261 16.4686 0.311705 14.5419 0.0501922 12.4311C-0.246524 10.0066 0.78444 7.36809 2.82122 5.93431C3.22858 5.64556 3.84716 5.35184 4.32492 5.19751C4.31486 5.26721 4.31989 5.34188 4.32492 5.4066C4.34001 5.64556 4.39533 5.87955 4.45568 6.11353C4.51603 6.34254 4.58643 6.56657 4.67193 6.78561C4.75742 7.00466 4.85298 7.21873 4.96362 7.42285C5.0642 7.60705 5.17484 7.78129 5.29554 7.95056C5.57717 8.33389 5.90908 8.68238 6.27118 8.99602C6.57795 9.26485 6.89479 9.50879 7.21162 9.76269C7.54857 10.0265 7.87546 10.3053 8.16212 10.6239C8.74046 11.2612 9.0925 12.0428 9.17297 12.8941C9.47471 15.9359 6.34662 18.3255 3.4398 17.2502Z" fill="white"/>
</g>
<path d="M28.8013 11.5859C28.8013 10.1048 29.0945 8.80528 29.6808 7.68743C30.2815 6.5556 31.1253 5.68228 32.2123 5.06746C33.3135 4.43866 34.5935 4.12427 36.0523 4.12427C37.1822 4.12427 38.1976 4.33387 39.0986 4.75306C40.014 5.17226 40.7577 5.7731 41.3297 6.5556C41.9018 7.32413 42.2665 8.21841 42.4238 9.23845H39.9568C39.7136 8.30225 39.2417 7.56866 38.5409 7.03768C37.8401 6.5067 36.9748 6.2412 35.9451 6.2412C35.0154 6.2412 34.2002 6.47176 33.4994 6.93288C32.7987 7.38002 32.2623 8.00881 31.8905 8.81926C31.5186 9.61573 31.3327 10.538 31.3327 11.5859C31.3327 12.62 31.5186 13.5422 31.8905 14.3526C32.2623 15.1631 32.7987 15.7989 33.4994 16.26C34.2002 16.7071 35.0154 16.9307 35.9451 16.9307C36.9748 16.9307 37.8329 16.6652 38.5194 16.1342C39.2202 15.6032 39.6922 14.8696 39.9353 13.9334H42.4024C42.2451 14.9675 41.8804 15.8687 41.3083 16.6373C40.7505 17.4058 40.0211 17.9996 39.1201 18.4188C38.2191 18.838 37.1965 19.0476 36.0523 19.0476C34.5935 19.0476 33.3135 18.7402 32.2123 18.1254C31.1253 17.5106 30.2815 16.6442 29.6808 15.5264C29.0945 14.3946 28.8013 13.0811 28.8013 11.5859Z" fill="white"/>
<path d="M49.483 19.0476C48.3818 19.0476 47.4021 18.8241 46.544 18.3769C45.7001 17.9158 45.0423 17.273 44.5703 16.4486C44.1126 15.6102 43.8838 14.6461 43.8838 13.5562C43.8838 12.4802 44.1126 11.5301 44.5703 10.7056C45.0423 9.86725 45.7001 9.21749 46.544 8.75638C47.4021 8.29526 48.3818 8.0647 49.483 8.0647C50.5842 8.0647 51.5568 8.29526 52.4006 8.75638C53.2587 9.21749 53.9166 9.86725 54.3742 10.7056C54.8462 11.5301 55.0822 12.4802 55.0822 13.5562C55.0822 14.6461 54.8462 15.6102 54.3742 16.4486C53.9166 17.273 53.2587 17.9158 52.4006 18.3769C51.5568 18.8241 50.5842 19.0476 49.483 19.0476ZM49.483 17.1193C50.4555 17.1193 51.235 16.791 51.8214 16.1342C52.422 15.4635 52.7224 14.6042 52.7224 13.5562C52.7224 12.5082 52.422 11.6558 51.8214 10.9991C51.235 10.3284 50.4555 9.993 49.483 9.993C48.5105 9.993 47.731 10.3284 47.1446 10.9991C46.5583 11.6558 46.2651 12.5082 46.2651 13.5562C46.2651 14.6042 46.5583 15.4635 47.1446 16.1342C47.731 16.791 48.5105 17.1193 49.483 17.1193Z" fill="white"/>
<path d="M56.9452 4.25003H59.2621V18.9219H56.9452V4.25003Z" fill="white"/>
<path d="M66.7249 19.0476C65.6236 19.0476 64.644 18.8241 63.7859 18.3769C62.942 17.9158 62.2841 17.273 61.8122 16.4486C61.3545 15.6102 61.1257 14.6461 61.1257 13.5562C61.1257 12.4802 61.3545 11.5301 61.8122 10.7056C62.2841 9.86725 62.942 9.21749 63.7859 8.75638C64.644 8.29526 65.6236 8.0647 66.7249 8.0647C67.8261 8.0647 68.7987 8.29526 69.6425 8.75638C70.5006 9.21749 71.1585 9.86725 71.6161 10.7056C72.0881 11.5301 72.3241 12.4802 72.3241 13.5562C72.3241 14.6461 72.0881 15.6102 71.6161 16.4486C71.1585 17.273 70.5006 17.9158 69.6425 18.3769C68.7987 18.8241 67.8261 19.0476 66.7249 19.0476ZM66.7249 17.1193C67.6974 17.1193 68.4769 16.791 69.0633 16.1342C69.6639 15.4635 69.9643 14.6042 69.9643 13.5562C69.9643 12.5082 69.6639 11.6558 69.0633 10.9991C68.4769 10.3284 67.6974 9.993 66.7249 9.993C65.7524 9.993 64.9729 10.3284 64.3865 10.9991C63.8002 11.6558 63.507 12.5082 63.507 13.5562C63.507 14.6042 63.8002 15.4635 64.3865 16.1342C64.9729 16.791 65.7524 17.1193 66.7249 17.1193Z" fill="white"/>
<path d="M79.9794 8.0647C81.2809 8.0647 82.3392 8.45595 83.1544 9.23845C83.9839 10.021 84.3987 11.2785 84.3987 13.0112V18.9219H82.0603V13.137C82.0603 12.1169 81.8387 11.3414 81.3953 10.8104C80.9519 10.2795 80.3012 10.014 79.4431 10.014C78.5278 10.014 77.8055 10.3284 77.2764 10.9572C76.7615 11.572 76.504 12.4243 76.504 13.5142V18.9219H74.1871V8.19046H76.2037L76.4611 9.59477C77.2906 8.57473 78.4634 8.0647 79.9794 8.0647Z" fill="white"/>
<path d="M87.5436 8.19046L90.6113 16.4696L93.5933 8.19046H96.0603L91.0833 20.5986C90.8258 21.2414 90.5899 21.7305 90.3753 22.0658C90.1608 22.4152 89.8962 22.6737 89.5816 22.8413C89.2669 23.023 88.845 23.1138 88.3159 23.1138H85.8273V21.1226H87.4577C87.9011 21.1226 88.2086 21.0528 88.3802 20.913C88.5518 20.7873 88.7306 20.4939 88.9165 20.0327L89.367 19.0057L85.0765 8.19046H87.5436Z" fill="white"/>
<path d="M97.0177 17.6224C97.0177 17.2032 97.1535 16.8608 97.4253 16.5953C97.7113 16.3298 98.0689 16.1971 98.4979 16.1971C98.927 16.1971 99.2845 16.3298 99.5706 16.5953C99.8566 16.8608 99.9996 17.2032 99.9996 17.6224C99.9996 18.0416 99.8566 18.3839 99.5706 18.6494C99.2845 18.9149 98.927 19.0476 98.4979 19.0476C98.0689 19.0476 97.7113 18.9149 97.4253 18.6494C97.1535 18.3839 97.0177 18.0416 97.0177 17.6224Z" fill="white"/>
<defs>
<clipPath id="clip0_305_2461">
<rect width="22.9426" height="22.7064" fill="white"/>
</clipPath>
</defs>
</svg>
